<?xml version="1.0" encoding="UTF-8"?>
<svg xmlns="http://www.w3.org/2000/svg" width="900" height="500" viewBox="0 0 900 500">
<style>
  text { font-family: ui-monospace, monospace; }
  .title    { font-size:15px; font-weight:bold; fill:#c8b89a; letter-spacing:.12em; }
  .brd      { font-size:12px; font-weight:bold; fill:#c8b89a; }
  .pid      { font-size:10px; fill:#555; }
  .pin      { font-size:11px; fill:#e8dcc8; }
  .pin-dim  { font-size:10px; fill:#666; }
  .bus-lbl  { font-size:10px; fill:#555; letter-spacing:.08em; }
  .note     { font-size:10px; fill:#555; font-style:italic; }
  .leg-hdr  { font-size:10px; fill:#666; letter-spacing:.1em; }
  .leg-lbl  { font-size:10px; fill:#888; }
</style>

<!-- Background -->
<rect width="900" height="500" fill="#0d0d0d"/>

<!-- Title -->
<text x="450" y="28" class="title" text-anchor="middle">GATEWAY — BOARD CONNECTIONS</text>

<!-- ═══════════════ WIZ5500 ═══════════════ -->
<rect x="28" y="75" width="168" height="245" fill="#161616" stroke="#2a2a2a" stroke-width="1.5" rx="4"/>
<text x="112" y="68" class="brd" text-anchor="middle">WIZ5500 Ethernet</text>
<text x="112" y="91" class="pid" text-anchor="middle">#6348  ·  Primary SPI</text>
<!-- RJ45 icon hint -->
<rect x="36" y="260" width="50" height="30" fill="#1a1a1a" stroke="#333" stroke-width="1" rx="2"/>
<text x="61" y="279" class="note" text-anchor="middle">RJ45</text>
<text x="61" y="290" class="note" text-anchor="middle">→ Eos</text>

<!-- WIZ5500 right-side pins (x=196) -->
<circle cx="196" cy="118" r="3.5" fill="#e05050"/>
<text x="190" y="122" class="pin" text-anchor="end">VIN</text>
<circle cx="196" cy="155" r="3.5" fill="#777"/>
<text x="190" y="159" class="pin" text-anchor="end">GND</text>
<circle cx="196" cy="193" r="3.5" fill="#4caf50"/>
<text x="190" y="197" class="pin" text-anchor="end">SCK</text>
<circle cx="196" cy="231" r="3.5" fill="#2196f3"/>
<text x="190" y="235" class="pin" text-anchor="end">MOSI</text>
<circle cx="196" cy="269" r="3.5" fill="#ff9800"/>
<text x="190" y="273" class="pin" text-anchor="end">MISO</text>
<circle cx="196" cy="307" r="3.5" fill="#ab47bc"/>
<text x="190" y="311" class="pin" text-anchor="end">CS</text>

<!-- ═══════════════ ESP32-S3 FEATHER ═══════════════ -->
<rect x="346" y="55" width="208" height="420" fill="#161616" stroke="#3a3a3a" stroke-width="2" rx="4"/>
<text x="450" y="48" class="brd" text-anchor="middle">ESP32-S3 Feather</text>
<text x="450" y="73" class="pid" text-anchor="middle">#5477  ·  Gateway</text>
<!-- USB-C power note -->
<rect x="356" y="420" width="54" height="24" fill="#1a1a1a" stroke="#333" stroke-width="1" rx="2"/>
<text x="383" y="432" class="note" text-anchor="middle">USB-C</text>
<text x="383" y="443" class="note" text-anchor="middle">power</text>

<!-- Feather LEFT pins (x=346) — to WIZ5500 -->
<circle cx="346" cy="118" r="3.5" fill="#e05050"/>
<text x="352" y="122" class="pin">3.3V</text>
<circle cx="346" cy="155" r="3.5" fill="#777"/>
<text x="352" y="159" class="pin">GND</text>
<circle cx="346" cy="193" r="3.5" fill="#4caf50"/>
<text x="352" y="197" class="pin">SCK</text>
<circle cx="346" cy="231" r="3.5" fill="#2196f3"/>
<text x="352" y="235" class="pin">MOSI</text>
<circle cx="346" cy="269" r="3.5" fill="#ff9800"/>
<text x="352" y="273" class="pin">MISO</text>
<circle cx="346" cy="307" r="3.5" fill="#ab47bc"/>
<text x="352" y="311" class="pin">D9</text>
<text x="398" y="311" class="pin-dim">(CS₀)</text>

<!-- Feather RIGHT pins (x=554) — to RFM95W -->
<circle cx="554" cy="118" r="3.5" fill="#e05050"/>
<text x="548" y="122" class="pin" text-anchor="end">3.3V</text>
<circle cx="554" cy="155" r="3.5" fill="#777"/>
<text x="548" y="159" class="pin" text-anchor="end">GND</text>
<circle cx="554" cy="193" r="3.5" fill="#4caf50"/>
<text x="548" y="197" class="pin" text-anchor="end">D10</text>
<text x="403" y="197" class="pin-dim" text-anchor="end">(SCK₁)</text>
<circle cx="554" cy="231" r="3.5" fill="#2196f3"/>
<text x="548" y="235" class="pin" text-anchor="end">D11</text>
<text x="403" y="235" class="pin-dim" text-anchor="end">(MOSI₁)</text>
<circle cx="554" cy="269" r="3.5" fill="#ff9800"/>
<text x="548" y="273" class="pin" text-anchor="end">D12</text>
<text x="403" y="273" class="pin-dim" text-anchor="end">(MISO₁)</text>
<circle cx="554" cy="307" r="3.5" fill="#ab47bc"/>
<text x="548" y="311" class="pin" text-anchor="end">D13</text>
<text x="403" y="311" class="pin-dim" text-anchor="end">(CS₁)</text>
<circle cx="554" cy="345" r="3.5" fill="#00bcd4"/>
<text x="548" y="349" class="pin" text-anchor="end">A0</text>
<text x="403" y="349" class="pin-dim" text-anchor="end">(RST)</text>
<circle cx="554" cy="383" r="3.5" fill="#ffee58"/>
<text x="548" y="387" class="pin" text-anchor="end">A1</text>
<text x="403" y="387" class="pin-dim" text-anchor="end">(IRQ)</text>

<!-- ═══════════════ RFM95W (2nd SPI) ═══════════════ -->
<rect x="672" y="75" width="200" height="335" fill="#161616" stroke="#2a2a2a" stroke-width="1.5" rx="4"/>
<text x="772" y="68" class="brd" text-anchor="middle">RFM95W LoRa</text>
<text x="772" y="91" class="pid" text-anchor="middle">#3072  ·  915 MHz  ·  Second SPI</text>
<!-- Antenna note -->
<rect x="820" y="340" width="44" height="24" fill="#1a1a1a" stroke="#333" stroke-width="1" rx="2"/>
<text x="842" y="352" class="note" text-anchor="middle">uFL</text>
<text x="842" y="363" class="note" text-anchor="middle">ant.</text>

<!-- RFM95W left-side pins (x=672) -->
<circle cx="672" cy="118" r="3.5" fill="#e05050"/>
<text x="678" y="122" class="pin">VIN</text>
<circle cx="672" cy="155" r="3.5" fill="#777"/>
<text x="678" y="159" class="pin">GND</text>
<circle cx="672" cy="193" r="3.5" fill="#4caf50"/>
<text x="678" y="197" class="pin">SCK</text>
<circle cx="672" cy="231" r="3.5" fill="#2196f3"/>
<text x="678" y="235" class="pin">MOSI</text>
<circle cx="672" cy="269" r="3.5" fill="#ff9800"/>
<text x="678" y="273" class="pin">MISO</text>
<circle cx="672" cy="307" r="3.5" fill="#ab47bc"/>
<text x="678" y="311" class="pin">CS</text>
<circle cx="672" cy="345" r="3.5" fill="#00bcd4"/>
<text x="678" y="349" class="pin">RST</text>
<circle cx="672" cy="383" r="3.5" fill="#ffee58"/>
<text x="678" y="387" class="pin">G0 (DIO0)</text>

<!-- ═══════════════ WIRES: WIZ5500 ↔ Feather ═══════════════ -->
<text x="271" y="96" class="bus-lbl" text-anchor="middle">PRIMARY SPI</text>
<line x1="196" y1="118" x2="346" y2="118" stroke="#e05050" stroke-width="1.5"/>
<line x1="196" y1="155" x2="346" y2="155" stroke="#777"    stroke-width="1.5"/>
<line x1="196" y1="193" x2="346" y2="193" stroke="#4caf50" stroke-width="1.5"/>
<line x1="196" y1="231" x2="346" y2="231" stroke="#2196f3" stroke-width="1.5"/>
<line x1="196" y1="269" x2="346" y2="269" stroke="#ff9800" stroke-width="1.5"/>
<line x1="196" y1="307" x2="346" y2="307" stroke="#ab47bc" stroke-width="1.5"/>

<!-- ═══════════════ WIRES: Feather ↔ RFM95W ═══════════════ -->
<text x="613" y="96" class="bus-lbl" text-anchor="middle">SECOND SPI</text>
<line x1="554" y1="118" x2="672" y2="118" stroke="#e05050" stroke-width="1.5"/>
<line x1="554" y1="155" x2="672" y2="155" stroke="#777"    stroke-width="1.5"/>
<line x1="554" y1="193" x2="672" y2="193" stroke="#4caf50" stroke-width="1.5"/>
<line x1="554" y1="231" x2="672" y2="231" stroke="#2196f3" stroke-width="1.5"/>
<line x1="554" y1="269" x2="672" y2="269" stroke="#ff9800" stroke-width="1.5"/>
<line x1="554" y1="307" x2="672" y2="307" stroke="#ab47bc" stroke-width="1.5"/>
<line x1="554" y1="345" x2="672" y2="345" stroke="#00bcd4" stroke-width="1.5"/>
<line x1="554" y1="383" x2="672" y2="383" stroke="#ffee58" stroke-width="1.5"/>

<!-- ═══════════════ LEGEND ═══════════════ -->
<text x="28"  y="432" class="leg-hdr">POWER</text>
<line x1="28"  y1="445" x2="55"  y2="445" stroke="#e05050" stroke-width="1.5"/>
<text x="60"  y="449" class="leg-lbl">3.3V / VIN</text>
<line x1="28"  y1="462" x2="55"  y2="462" stroke="#777"    stroke-width="1.5"/>
<text x="60"  y="466" class="leg-lbl">GND</text>

<text x="155" y="432" class="leg-hdr">SPI</text>
<line x1="155" y1="445" x2="182" y2="445" stroke="#4caf50" stroke-width="1.5"/>
<text x="187" y="449" class="leg-lbl">SCK</text>
<line x1="155" y1="462" x2="182" y2="462" stroke="#2196f3" stroke-width="1.5"/>
<text x="187" y="466" class="leg-lbl">MOSI</text>
<line x1="245" y1="445" x2="272" y2="445" stroke="#ff9800" stroke-width="1.5"/>
<text x="277" y="449" class="leg-lbl">MISO</text>
<line x1="245" y1="462" x2="272" y2="462" stroke="#ab47bc" stroke-width="1.5"/>
<text x="277" y="466" class="leg-lbl">CS</text>

<text x="340" y="432" class="leg-hdr">CONTROL</text>
<line x1="340" y1="445" x2="367" y2="445" stroke="#00bcd4" stroke-width="1.5"/>
<text x="372" y="449" class="leg-lbl">RST</text>
<line x1="340" y1="462" x2="367" y2="462" stroke="#ffee58" stroke-width="1.5"/>
<text x="372" y="466" class="leg-lbl">G0 / IRQ</text>
</svg>
